<svg width="1200" height="1600" viewBox="0 0 1200 1600" fill="none" xmlns="http://www.w3.org/2000/svg">
  <rect width="1200" height="1600" fill="#040206"/>
  <rect x="110" y="120" width="980" height="1360" rx="48" fill="url(#paint0_linear)"/>
  <circle cx="640" cy="470" r="220" fill="#FB7185" fill-opacity="0.32"/>
  <path d="M620 248C536 366 484 490 468 624C448 790 520 920 652 1042" stroke="#FDBA74" stroke-width="26" stroke-linecap="round"/>
  <path d="M682 268C758 366 812 462 836 566C872 722 806 918 628 1134" stroke="#FB7185" stroke-width="26" stroke-linecap="round"/>
  <path d="M505 770C588 846 664 920 725 1030" stroke="#FCD34D" stroke-width="20" stroke-linecap="round"/>
  <text x="172" y="248" fill="#F8F5FF" font-family="Impact, Arial Black, sans-serif" font-size="76" letter-spacing="9">RCPU</text>
  <text x="170" y="1120" fill="#FFFFFF" font-family="Impact, Arial Black, sans-serif" font-size="152" letter-spacing="8">EMBER</text>
  <text x="170" y="1250" fill="#FB7185" font-family="Impact, Arial Black, sans-serif" font-size="152" letter-spacing="8">VEIL</text>
  <text x="172" y="1338" fill="#D4C6D8" font-family="Arial, sans-serif" font-size="36" letter-spacing="8">EVERY OATH LEAVES A SCAR. EVERY SCAR BECOMES A GATE.</text>
  <defs>
    <linearGradient id="paint0_linear" x1="110" y1="120" x2="1090" y2="1480" gradientUnits="userSpaceOnUse">
      <stop stop-color="#170811"/>
      <stop offset="1" stop-color="#060309"/>
    </linearGradient>
  </defs>
</svg>
