<svg width="900" height="1200" viewBox="0 0 900 1200" fill="none" xmlns="http://www.w3.org/2000/svg">
  <rect width="900" height="1200" fill="#060309"/>
  <rect x="70" y="70" width="760" height="1060" rx="44" fill="#130913"/>
  <circle cx="604" cy="252" r="168" fill="#FB7185" fill-opacity="0.25"/>
  <path d="M292 902C332 694 380 560 450 410C532 582 580 734 616 902" fill="#171018"/>
  <circle cx="452" cy="352" r="108" fill="#F8D9D2"/>
  <path d="M334 314C356 242 422 206 486 206C552 206 610 244 624 304C580 282 540 274 488 274C422 274 376 288 334 314Z" fill="#1B111B"/>
  <path d="M592 216C522 372 472 500 452 618" stroke="#FDBA74" stroke-width="20" stroke-linecap="round"/>
  <text x="112" y="1012" fill="#FFFFFF" font-family="Impact, Arial Black, sans-serif" font-size="86" letter-spacing="4">MAE ILYAN</text>
  <text x="114" y="1076" fill="#FDBA74" font-family="Arial, sans-serif" font-size="28" letter-spacing="6">EMBER VEIL BEARER</text>
</svg>
